<svg width="464" height="267" viewBox="0 0 464 267" fill="none" xmlns="http://www.w3.org/2000/svg">
<path d="M337 265.9V253.515H342.361C343.47 253.515 344.425 253.698 345.227 254.064C346.029 254.418 346.649 254.931 347.085 255.603C347.522 256.275 347.74 257.078 347.74 258.009C347.74 258.929 347.522 259.726 347.085 260.398C346.649 261.07 346.029 261.589 345.227 261.955C344.425 262.309 343.47 262.486 342.361 262.486H338.592L339.866 261.194V265.9H337ZM339.866 261.513L338.592 260.15H342.202C343.086 260.15 343.747 259.961 344.183 259.584C344.62 259.207 344.838 258.682 344.838 258.009C344.838 257.325 344.62 256.794 344.183 256.417C343.747 256.04 343.086 255.851 342.202 255.851H338.592L339.866 254.488V261.513Z" fill="black"/>
<path d="M352.422 258.505H358.385V260.734H352.422V258.505ZM352.635 263.6H359.376V265.9H349.786V253.515H359.146V255.815H352.635V263.6Z" fill="black"/>
<path d="M361.656 265.9V253.515H367.283C368.627 253.515 369.813 253.775 370.839 254.294C371.865 254.801 372.667 255.515 373.245 256.435C373.823 257.355 374.112 258.446 374.112 259.708C374.112 260.958 373.823 262.049 373.245 262.981C372.667 263.901 371.865 264.621 370.839 265.14C369.813 265.647 368.627 265.9 367.283 265.9H361.656ZM364.523 263.547H367.141C367.967 263.547 368.68 263.394 369.282 263.087C369.895 262.769 370.367 262.321 370.698 261.743C371.04 261.165 371.211 260.486 371.211 259.708C371.211 258.918 371.04 258.239 370.698 257.673C370.367 257.095 369.895 256.653 369.282 256.346C368.68 256.028 367.967 255.868 367.141 255.868H364.523V263.547Z" fill="black"/>
<path d="M374.473 265.9L379.994 253.515H382.824L388.362 265.9H385.355L380.825 254.966H381.958L377.41 265.9H374.473ZM377.233 263.247L377.994 261.07H384.364L385.142 263.247H377.233Z" fill="black"/>
<path d="M395.455 266.113C394.476 266.113 393.574 265.959 392.748 265.653C391.934 265.334 391.22 264.886 390.607 264.308C390.005 263.73 389.534 263.052 389.192 262.273C388.861 261.495 388.696 260.64 388.696 259.708C388.696 258.776 388.861 257.921 389.192 257.142C389.534 256.364 390.011 255.686 390.625 255.108C391.238 254.53 391.958 254.087 392.783 253.781C393.609 253.462 394.517 253.303 395.508 253.303C396.605 253.303 397.59 253.486 398.463 253.851C399.347 254.217 400.09 254.748 400.692 255.444L398.852 257.142C398.404 256.671 397.914 256.323 397.383 256.098C396.853 255.863 396.275 255.745 395.649 255.745C395.048 255.745 394.499 255.839 394.004 256.028C393.509 256.216 393.078 256.488 392.712 256.842C392.359 257.195 392.081 257.614 391.881 258.098C391.692 258.581 391.598 259.118 391.598 259.708C391.598 260.286 391.692 260.817 391.881 261.3C392.081 261.784 392.359 262.209 392.712 262.574C393.078 262.928 393.503 263.199 393.986 263.388C394.482 263.577 395.024 263.671 395.614 263.671C396.18 263.671 396.729 263.583 397.26 263.406C397.802 263.217 398.327 262.904 398.834 262.468L400.462 264.538C399.79 265.045 399.005 265.435 398.109 265.706C397.224 265.977 396.34 266.113 395.455 266.113ZM397.843 264.167V259.513H400.462V264.538L397.843 264.167Z" fill="black"/>
<path d="M409.14 266.113C408.161 266.113 407.253 265.954 406.415 265.635C405.59 265.317 404.87 264.868 404.257 264.29C403.655 263.712 403.184 263.034 402.841 262.256C402.511 261.477 402.346 260.628 402.346 259.708C402.346 258.788 402.511 257.939 402.841 257.16C403.184 256.382 403.661 255.703 404.275 255.125C404.888 254.547 405.607 254.099 406.433 253.781C407.259 253.462 408.155 253.303 409.123 253.303C410.102 253.303 410.998 253.462 411.812 253.781C412.638 254.099 413.351 254.547 413.953 255.125C414.566 255.703 415.044 256.382 415.386 257.16C415.728 257.927 415.899 258.776 415.899 259.708C415.899 260.628 415.728 261.483 415.386 262.273C415.044 263.052 414.566 263.73 413.953 264.308C413.351 264.874 412.638 265.317 411.812 265.635C410.998 265.954 410.107 266.113 409.14 266.113ZM409.123 263.671C409.677 263.671 410.184 263.577 410.644 263.388C411.116 263.199 411.529 262.928 411.883 262.574C412.237 262.22 412.508 261.802 412.697 261.318C412.897 260.834 412.997 260.298 412.997 259.708C412.997 259.118 412.897 258.581 412.697 258.098C412.508 257.614 412.237 257.195 411.883 256.842C411.541 256.488 411.134 256.216 410.662 256.028C410.19 255.839 409.677 255.745 409.123 255.745C408.568 255.745 408.055 255.839 407.583 256.028C407.123 256.216 406.716 256.488 406.362 256.842C406.009 257.195 405.731 257.614 405.531 258.098C405.342 258.581 405.248 259.118 405.248 259.708C405.248 260.286 405.342 260.823 405.531 261.318C405.731 261.802 406.003 262.22 406.345 262.574C406.699 262.928 407.111 263.199 407.583 263.388C408.055 263.577 408.568 263.671 409.123 263.671ZM407.512 252.507L409.901 249.959H412.873L409.671 252.507H407.512Z" fill="black"/>
<path d="M424.033 266.113C423.054 266.113 422.152 265.959 421.326 265.653C420.512 265.334 419.799 264.886 419.185 264.308C418.584 263.73 418.112 263.052 417.77 262.273C417.44 261.495 417.275 260.64 417.275 259.708C417.275 258.776 417.44 257.921 417.77 257.142C418.112 256.364 418.59 255.686 419.203 255.108C419.817 254.53 420.536 254.087 421.362 253.781C422.187 253.462 423.096 253.303 424.086 253.303C425.183 253.303 426.168 253.486 427.041 253.851C427.926 254.217 428.669 254.748 429.271 255.444L427.43 257.142C426.982 256.671 426.493 256.323 425.962 256.098C425.431 255.863 424.853 255.745 424.228 255.745C423.626 255.745 423.078 255.839 422.583 256.028C422.087 256.216 421.657 256.488 421.291 256.842C420.937 257.195 420.66 257.614 420.459 258.098C420.271 258.581 420.176 259.118 420.176 259.708C420.176 260.286 420.271 260.817 420.459 261.3C420.66 261.784 420.937 262.209 421.291 262.574C421.657 262.928 422.081 263.199 422.565 263.388C423.06 263.577 423.603 263.671 424.193 263.671C424.759 263.671 425.307 263.583 425.838 263.406C426.381 263.217 426.906 262.904 427.413 262.468L429.041 264.538C428.368 265.045 427.584 265.435 426.687 265.706C425.803 265.977 424.918 266.113 424.033 266.113ZM426.422 264.167V259.513H429.041V264.538L426.422 264.167Z" fill="black"/>
<path d="M431.703 265.9V253.515H434.569V265.9H431.703Z" fill="black"/>
<path d="M443.436 266.113C442.48 266.113 441.59 265.959 440.764 265.653C439.95 265.334 439.243 264.886 438.641 264.308C438.039 263.73 437.568 263.052 437.226 262.273C436.895 261.495 436.73 260.64 436.73 259.708C436.73 258.776 436.895 257.921 437.226 257.142C437.568 256.364 438.039 255.686 438.641 255.108C439.254 254.53 439.968 254.087 440.782 253.781C441.596 253.462 442.486 253.303 443.454 253.303C444.527 253.303 445.494 253.492 446.355 253.869C447.228 254.235 447.959 254.777 448.549 255.497L446.709 257.195C446.284 256.712 445.813 256.352 445.294 256.116C444.775 255.868 444.208 255.745 443.595 255.745C443.017 255.745 442.486 255.839 442.003 256.028C441.519 256.216 441.1 256.488 440.746 256.842C440.393 257.195 440.115 257.614 439.915 258.098C439.726 258.581 439.632 259.118 439.632 259.708C439.632 260.298 439.726 260.834 439.915 261.318C440.115 261.802 440.393 262.22 440.746 262.574C441.1 262.928 441.519 263.199 442.003 263.388C442.486 263.577 443.017 263.671 443.595 263.671C444.208 263.671 444.775 263.553 445.294 263.317C445.813 263.07 446.284 262.698 446.709 262.203L448.549 263.901C447.959 264.621 447.228 265.169 446.355 265.547C445.494 265.924 444.521 266.113 443.436 266.113Z" fill="black"/>
<path d="M456.241 266.113C455.262 266.113 454.354 265.954 453.516 265.635C452.691 265.317 451.971 264.868 451.358 264.29C450.756 263.712 450.285 263.034 449.942 262.256C449.612 261.477 449.447 260.628 449.447 259.708C449.447 258.788 449.612 257.939 449.942 257.16C450.285 256.382 450.762 255.703 451.376 255.125C451.989 254.547 452.709 254.099 453.534 253.781C454.36 253.462 455.256 253.303 456.224 253.303C457.203 253.303 458.099 253.462 458.913 253.781C459.739 254.099 460.452 254.547 461.054 255.125C461.667 255.703 462.145 256.382 462.487 257.16C462.829 257.927 463 258.776 463 259.708C463 260.628 462.829 261.483 462.487 262.273C462.145 263.052 461.667 263.73 461.054 264.308C460.452 264.874 459.739 265.317 458.913 265.635C458.099 265.954 457.208 266.113 456.241 266.113ZM456.224 263.671C456.778 263.671 457.285 263.577 457.745 263.388C458.217 263.199 458.63 262.928 458.984 262.574C459.338 262.22 459.609 261.802 459.798 261.318C459.998 260.834 460.098 260.298 460.098 259.708C460.098 259.118 459.998 258.581 459.798 258.098C459.609 257.614 459.338 257.195 458.984 256.842C458.642 256.488 458.235 256.216 457.763 256.028C457.291 255.839 456.778 255.745 456.224 255.745C455.669 255.745 455.156 255.839 454.684 256.028C454.224 256.216 453.817 256.488 453.463 256.842C453.11 257.195 452.832 257.614 452.632 258.098C452.443 258.581 452.349 259.118 452.349 259.708C452.349 260.286 452.443 260.823 452.632 261.318C452.832 261.802 453.104 262.22 453.446 262.574C453.8 262.928 454.212 263.199 454.684 263.388C455.156 263.577 455.669 263.671 456.224 263.671Z" fill="black"/>
<path d="M310.967 242.127L310.97 242.129C314.199 243.601 317.707 244.335 321.487 244.335C327.946 244.335 332.943 242.621 336.391 239.116C339.899 235.607 341.608 230.329 341.608 223.383V184.807V184.307H341.108H309.598H309.098V184.807V193.869V194.369H309.598H329.8V223.965C329.8 227.482 329.055 230.026 327.652 231.686C326.263 233.33 324.157 234.19 321.237 234.19C319.051 234.19 317.032 233.658 315.17 232.595C313.359 231.529 311.662 229.919 310.086 227.745L309.708 227.224L309.297 227.719L303.144 235.119L302.894 235.419L303.126 235.734C305.172 238.519 307.788 240.651 310.967 242.127ZM356.67 237.455L356.672 237.457C361.333 242.061 367.734 244.335 375.813 244.335C383.836 244.335 390.184 242.06 394.789 237.455C399.456 232.844 401.753 226.214 401.753 217.647V184.807V184.307H401.253H390.612H390.112V184.807V217.231C390.112 223.163 388.845 227.361 386.423 229.941C383.991 232.531 380.508 233.858 375.896 233.858C371.286 233.858 367.772 232.532 365.284 229.94C362.863 227.359 361.597 223.162 361.597 217.231V184.807V184.307H361.097H350.289H349.789V184.807V217.647C349.789 226.213 352.058 232.843 356.67 237.455ZM398.171 242.799L397.854 243.504H398.627H409.768H410.098L410.228 243.201L430.059 196.855L449.964 243.201L450.094 243.504H450.423H461.73H462.504L462.186 242.798L435.914 184.601L435.781 184.307H435.458H424.816H424.493L424.36 184.601L398.171 242.799Z" fill="#C02427" stroke="#C02427"/>
<path d="M424.365 178.857L424.484 179.343L424.97 179.224L437.816 176.073L438.302 175.954L438.182 175.468L437.057 170.88L436.938 170.395L436.452 170.514L430.613 171.946L423.606 173.665L423.121 173.784L423.24 174.27L424.365 178.857Z" fill="#C02427" stroke="#C02427"/>
<path fill-rule="evenodd" clip-rule="evenodd" d="M213.762 245.44C209.089 245.44 204.733 244.69 200.695 243.19C196.714 241.633 193.252 239.441 190.31 236.614C187.368 233.787 185.06 230.469 183.387 226.662C181.772 222.854 180.964 218.671 180.964 214.114C180.964 209.556 181.772 205.373 183.387 201.566C185.06 197.758 187.368 194.441 190.31 191.614C193.31 188.787 196.8 186.624 200.781 185.124C204.762 183.566 209.118 182.787 213.848 182.787C219.098 182.787 223.829 183.71 228.041 185.556C232.31 187.345 235.887 189.999 238.771 193.518L229.771 201.825C227.694 199.46 225.387 197.7 222.848 196.547C220.31 195.335 217.541 194.729 214.541 194.729C211.714 194.729 209.118 195.191 206.752 196.114C204.387 197.037 202.339 198.364 200.608 200.095C198.877 201.825 197.522 203.873 196.541 206.239C195.618 208.604 195.156 211.229 195.156 214.114C195.156 216.998 195.618 219.623 196.541 221.989C197.522 224.354 198.877 226.402 200.608 228.133C202.339 229.864 204.387 231.191 206.752 232.114C209.118 233.037 211.714 233.498 214.541 233.498C217.541 233.498 220.31 232.921 222.848 231.767C225.387 230.556 227.694 228.739 229.771 226.316L238.771 234.623C235.887 238.142 232.31 240.825 228.041 242.671C223.829 244.517 219.069 245.44 213.762 245.44ZM13.9326 233.152V219.133H42.0574V208.455H0V244.402H46.9035V233.152H13.9326ZM0 195.141H13.9326V195.075H45.7785V183.826H0V195.141ZM53.7312 244.402V183.826H81.2502C87.8271 183.826 93.6251 185.095 98.6443 187.633C103.663 190.114 107.587 193.604 110.413 198.104C113.24 202.604 114.654 207.941 114.654 214.114C114.654 220.229 113.24 225.566 110.413 230.123C107.587 234.623 103.663 238.142 98.6443 240.681C93.6251 243.162 87.8271 244.402 81.2502 244.402H53.7312ZM67.7503 232.892H80.5579C84.5963 232.892 88.0867 232.142 91.029 230.642C94.0289 229.085 96.3366 226.893 97.952 224.066C99.625 221.239 100.462 217.921 100.462 214.114C100.462 210.248 99.625 206.931 97.952 204.162C96.3366 201.335 94.0289 199.172 91.029 197.672C88.0867 196.114 84.5963 195.335 80.5579 195.335H67.7503V232.892ZM127.649 238.258C132.495 243.046 139.217 245.44 147.813 245.44C156.409 245.44 163.13 243.046 167.976 238.258C172.822 233.469 175.245 226.633 175.245 217.748V183.826H161.399V217.229C161.399 222.998 160.216 227.152 157.851 229.691C155.486 232.229 152.168 233.498 147.899 233.498C143.63 233.498 140.313 232.229 137.947 229.691C135.582 227.152 134.399 222.998 134.399 217.229V183.826H120.38V217.748C120.38 226.633 122.803 233.469 127.649 238.258ZM261.851 183.826L234.851 244.402H249.217L268.682 197.594L276.995 217.662L288.072 244.402H302.784L275.697 183.826H261.851Z" fill="#143048"/>
<path fill-rule="evenodd" clip-rule="evenodd" d="M234.323 0.915577C232.218 -0.305192 229.621 -0.305193 227.517 0.915576L195.721 19.3597L163.851 37.6732C161.741 38.8853 160.443 41.1345 160.448 43.5674L160.483 61.0522L181.087 49.1568C181.087 49.1568 201.847 37.1507 211.115 31.8203L211.127 31.8418L227.517 22.3344C229.621 21.1137 232.218 21.1137 234.323 22.3344L257.318 35.674L280.369 48.9191C282.478 50.1312 283.777 52.3804 283.772 54.8133L283.717 81.398L283.772 107.983C283.777 110.416 282.478 112.665 280.369 113.877L258.494 126.446L256.145 127.802L234.323 140.462C234.075 140.605 233.82 140.732 233.56 140.842L214.209 152.015L227.517 159.734C229.621 160.955 232.218 160.955 234.323 159.734L266.118 141.29L297.989 122.977C300.098 121.765 301.397 119.516 301.392 117.083L301.316 80.325L301.392 43.5674C301.397 41.1345 300.098 38.8853 297.989 37.6732L266.118 19.3597L234.323 0.915577ZM178.11 87.0486L210.556 68.316C215.422 65.5069 217.292 59.6365 214.733 55.2042C212.174 50.7719 206.155 49.4562 201.289 52.2653L140.735 87.2262C135.87 90.0354 134 95.9058 136.559 100.338C139.118 104.77 145.137 106.086 150.002 103.277L160.488 97.2228L160.47 106.111L178.092 95.9373L178.11 87.0486ZM174.708 129.216L191.397 119.581L199.696 124.349L230.339 106.658C235.204 103.849 241.223 105.164 243.782 109.596C246.341 114.028 244.471 119.899 239.605 122.708L181.176 156.442C176.311 159.251 170.292 157.935 167.733 153.503C165.174 149.071 167.044 143.201 171.91 140.392L183.007 133.985L174.708 129.216ZM205.336 85.1956C210.202 82.3865 216.22 83.7021 218.779 88.1343C221.338 92.5664 219.468 98.4366 214.603 101.246L154.049 136.207C149.183 139.016 143.164 137.7 140.605 133.268C138.046 128.836 139.916 122.966 144.782 120.157L205.336 85.1956Z" fill="#143048"/>
<path d="M205.336 85.1958C210.202 82.3867 216.22 83.7023 218.779 88.1345C221.338 92.5666 219.468 98.4368 214.603 101.246L154.049 136.207C149.183 139.016 143.164 137.7 140.605 133.268C138.046 128.836 139.916 122.966 144.782 120.157L205.336 85.1958Z" fill="#C02427"/>
</svg>
