<svg width="167" height="161" viewBox="0 0 167 161" fill="none" xmlns="http://www.w3.org/2000/svg">
<path fill-rule="evenodd" clip-rule="evenodd" d="M99.3227 0.915577C97.2182 -0.305192 94.6211 -0.305193 92.5167 0.915576L60.7213 19.3597L28.8506 37.6732C26.7412 38.8853 25.4426 41.1345 25.4476 43.5674L25.4834 61.0522L46.087 49.1568C46.087 49.1568 66.8471 37.1507 76.1147 31.8203L76.1271 31.8418L92.5166 22.3344C94.621 21.1137 97.2181 21.1137 99.3226 22.3344L122.318 35.674L145.369 48.9191C147.478 50.1312 148.777 52.3804 148.772 54.8133L148.717 81.398L148.772 107.983C148.777 110.416 147.478 112.665 145.369 113.877L123.494 126.446L121.145 127.802L99.3226 140.462C99.0746 140.605 98.8197 140.732 98.5597 140.842L79.2086 152.015L92.5167 159.734C94.6211 160.955 97.2182 160.955 99.3227 159.734L131.118 141.29L162.989 122.977C165.098 121.765 166.397 119.516 166.392 117.083L166.316 80.325L166.392 43.5674C166.397 41.1345 165.098 38.8853 162.989 37.6732L131.118 19.3597L99.3227 0.915577ZM43.1105 87.0486L75.5562 68.316C80.4219 65.5069 82.2918 59.6365 79.7328 55.2042C77.1738 50.7719 71.155 49.4562 66.2894 52.2653L5.73533 87.2262C0.869689 90.0354 -1.00023 95.9058 1.55875 100.338C4.11772 104.77 10.1366 106.086 15.0022 103.277L25.4883 97.2228L25.4701 106.111L43.0922 95.9373L43.1105 87.0486ZM39.708 129.216L56.3966 119.581L64.6957 124.349L95.3387 106.658C100.204 103.849 106.223 105.164 108.782 109.596C111.341 114.028 109.471 119.899 104.605 122.708L46.1763 156.442C41.3106 159.251 35.2918 157.935 32.733 153.503C30.1741 149.071 32.044 143.201 36.9097 140.392L48.0072 133.985L39.708 129.216ZM70.336 85.1956C75.2016 82.3865 81.2204 83.7021 83.7793 88.1343C86.3382 92.5664 84.4682 98.4366 79.6026 101.246L19.0486 136.207C14.1829 139.016 8.16414 137.7 5.60524 133.268C3.04635 128.836 4.91634 122.966 9.78198 120.157L70.336 85.1956Z" fill="#143048"/>
<path d="M70.336 85.1958C75.2016 82.3867 81.2204 83.7023 83.7793 88.1345C86.3382 92.5666 84.4682 98.4368 79.6025 101.246L19.0485 136.207C14.1829 139.016 8.1641 137.7 5.60521 133.268C3.04632 128.836 4.91631 122.966 9.78195 120.157L70.336 85.1958Z" fill="#C02427"/>
</svg>
